<svg width="20" height="18" viewBox="0 0 20 18" fill="none" xmlns="http://www.w3.org/2000/svg">
<path fill-rule="evenodd" clip-rule="evenodd" d="M3.40505 3L4.21607 3L4.5489 5.99544C3.52185 5.93069 2.65642 5.18308 2.45225 4.16223C2.332 3.56097 2.79188 3 3.40505 3ZM4.69397 8H5.11896C5.88014 9.50386 7.31039 10.5956 9 10.9085V13.1131C7.27781 13.5351 6 15.0889 6 16.9412C6 17.526 6.47406 18 7.05883 18H12.9412C13.526 18 14 17.5259 14 16.9412C14 15.0889 12.7222 13.5351 11 13.1131V10.9085C12.6896 10.5956 14.1199 9.50386 14.881 8H15.306C17.3491 8 19.1082 6.55789 19.5089 4.55446C19.8767 2.71562 18.4702 1 16.595 1H15.9609C15.8677 0.438654 15.3796 0 14.7794 0H5.22057C4.62044 0 4.13234 0.438654 4.03909 1H3.40505C1.52979 1 0.123322 2.71562 0.491091 4.55446C0.891777 6.55789 2.65086 8 4.69397 8ZM15.7839 3L15.4511 5.99544C16.4782 5.93069 17.3436 5.18308 17.5478 4.16223C17.668 3.56097 17.2081 3 16.595 3H15.7839ZM6.11727 2L6.55216 5.91403C6.74737 7.67088 8.23235 9 10 9C11.7677 9 13.2526 7.67088 13.4478 5.91403L13.8827 2H6.11727ZM11.757 16C11.4257 15.4036 10.7894 15 10.0588 15H9.94118C9.2106 15 8.57428 15.4036 8.24302 16H11.757Z" fill="current"/>
</svg>
