<svg width="18" height="16" viewBox="0 0 18 16" fill="none" xmlns="http://www.w3.org/2000/svg">
<path fill-rule="evenodd" clip-rule="evenodd" d="M1.29304 11.2929L0.585937 12L1.29304 12.7071L4.29304 15.7071C4.68357 16.0976 5.31673 16.0976 5.70726 15.7071C6.09778 15.3166 6.09778 14.6834 5.70726 14.2929L4.41436 13L14.0002 13C14.5524 13 15.0002 12.5523 15.0002 12C15.0002 11.4477 14.5524 11 14.0002 11L4.41436 11L5.70726 9.70711C6.09778 9.31658 6.09778 8.68342 5.70726 8.29289C5.31673 7.90237 4.68357 7.90237 4.29304 8.29289L1.29304 11.2929ZM16.7073 4.70711L17.4144 4L16.7073 3.29289L13.7073 0.292893C13.3167 -0.097632 12.6836 -0.097632 12.293 0.292892C11.9025 0.683417 11.9025 1.31658 12.293 1.70711L13.5859 3L4.00015 3C3.44786 3 3.00015 3.44771 3.00015 4C3.00015 4.55228 3.44787 5 4.00015 5L13.5859 5L12.293 6.29289C11.9025 6.68342 11.9025 7.31658 12.293 7.70711C12.6836 8.09763 13.3167 8.09763 13.7073 7.70711L16.7073 4.70711Z" fill="current"/>
</svg>
