<svg width="24" height="24" viewBox="0 0 24 24" fill="none" xmlns="http://www.w3.org/2000/svg">
<circle cx="12" cy="12" r="12" fill="#F0B90B"/>
<path fill-rule="evenodd" clip-rule="evenodd" d="M16.2942 11.3748L16.2855 9.50978H16.2923L14.7087 8.57726L11.9952 10.1778L9.29805 8.57726L7.71547 9.50978V11.3748L10.429 12.9676V16.1609L12.0048 17.0848L13.5807 16.1609V12.9676L16.2942 11.3748ZM11.9961 3.7998L7.71451 6.32513L9.29033 7.25764L11.9961 5.65711L14.7097 7.25764L16.2855 6.32513L11.9961 3.7998ZM6.58451 15.2207L6.57582 12.0351L5.00097 11.1035V16.1619L9.29032 18.6785V16.8135L6.58451 15.2207ZM6.57582 10.7058V8.84949L8.15936 7.91697L6.57582 6.98445L5 7.91697V9.77331L6.57582 10.7058ZM11.9961 6.98445L10.4203 7.91697L11.9961 8.84949L13.5797 7.91697L11.9961 6.98445ZM7.71451 12.6954V14.5604L9.29033 15.4843V13.6279L7.71451 12.6954ZM11.9961 18.414L10.4203 17.4815V19.3379L11.9961 20.2704L13.5797 19.3379V17.4815L11.9961 18.414ZM17.4155 6.98445L15.8397 7.91697L17.4155 8.84949V10.7058L18.999 9.77331V7.91697L17.4155 6.98445ZM17.4155 15.2207L14.7106 16.8126V18.6776L19 16.161V11.1026L17.4242 12.0351L17.4155 15.2207ZM16.2861 14.5604L14.7097 15.4842V13.6279L16.2861 12.6954V14.5604Z" fill="white"/>
</svg>
