<svg width="20" height="18" viewBox="0 0 20 18" fill="none" xmlns="http://www.w3.org/2000/svg">
<path fill-rule="evenodd" clip-rule="evenodd" d="M5 2.01419C6.11565 2.10096 7.16865 2.58286 7.96554 3.37975L9 4.41421V8.57143V13.4032C8.08974 12.0469 6.61833 11.1755 5 11.0237V2.01419ZM12.6475 14.5376C13.6733 14.2394 14.7505 14.1225 15.8305 14.1996L18 14.3546V6.12717L17 6.24717V11.5079C17 12.3319 16.3319 13 15.5079 13C14.3536 13 13.2804 13.5803 12.6475 14.5376ZM17 4.23283L17.7617 4.14142C18.9522 3.99856 20 4.92813 20 6.12717V14.3546C20 15.5153 19.0152 16.4322 17.8575 16.3495L15.688 16.1945C14.1206 16.0826 12.5605 16.4949 11.253 17.3665C10.8531 17.6331 10.3969 17.67 10 17.539C9.60313 17.67 9.14686 17.6331 8.74697 17.3665C7.43951 16.4949 5.87939 16.0826 4.31202 16.1945L2.14249 16.3495C0.984757 16.4322 0 15.5153 0 14.3546V6.12717C0 4.92813 1.04779 3.99856 2.23829 4.14142L3 4.23283V1.63453C3 0.731803 3.7318 0 4.63453 0C6.41433 0 8.12124 0.707025 9.37975 1.96554L10 2.58579L10.6203 1.96554C11.8788 0.707025 13.5857 0 15.3655 0C16.2682 0 17 0.731803 17 1.63453V4.23283ZM2 6.12717L3 6.24717V11.5079C3 12.3319 3.66806 13 4.49215 13C5.64641 13 6.71957 13.5803 7.35251 14.5376C6.32675 14.2394 5.24948 14.1225 4.16953 14.1996L2 14.3546V6.12717ZM12.0345 3.37975C12.8314 2.58286 13.8844 2.10096 15 2.01419V11.0237C13.3817 11.1755 11.9103 12.0469 11 13.4032V8.57143V4.41421L12.0345 3.37975Z" fill="current"/>
</svg>
