<svg width="501" height="509" viewBox="0 0 501 509" fill="none" xmlns="http://www.w3.org/2000/svg">
<g clip-path="url(#clip0_2998_15290)">
<path fill-rule="evenodd" clip-rule="evenodd" d="M435.62 303.86C426.75 309.46 416.31 310.16 408.37 305.68C398.29 299.99 392.74 286.68 392.74 268.11V212.64C392.74 185.85 382.15 166.79 364.44 161.64C334.44 152.9 311.86 189.64 303.37 203.41L250.44 289.23V184.34C249.84 160.2 242.01 145.76 227.12 141.41C217.28 138.53 202.54 139.69 188.23 161.59L69.64 352C53.7638 321.862 45.4874 288.304 45.53 254.24C45.53 139.53 137.45 46.24 250.44 46.24C363.43 46.24 455.34 139.56 455.34 254.24C455.34 254.44 455.39 254.61 455.4 254.79C455.41 254.97 455.4 255.17 455.4 255.37C456.47 277.58 449.28 295.25 435.65 303.86H435.62ZM500.87 254.26V253.69V253.12C500.22 113.41 388.14 0 250.43 0C112.35 0 0 114.05 0 254.25C0 394.45 112.35 508.49 250.44 508.49C313.777 508.501 374.709 484.237 420.7 440.69C425.144 436.486 427.76 430.705 427.986 424.592C428.212 418.479 426.031 412.521 421.91 408C417.894 403.575 412.285 400.926 406.316 400.635C400.347 400.345 394.507 402.436 390.08 406.45L389.74 406.76C352.116 442.395 302.262 462.251 250.44 462.24C189.94 462.24 135.51 435.46 97.97 393L204.91 221.31V300.47C204.91 338.47 219.66 350.79 232.02 354.38C244.38 357.97 263.31 355.52 283.17 323.28L342 227.92C343.89 224.84 345.62 222.19 347.21 219.92V268.14C347.21 303.69 361.45 332.14 386.27 346.14C408.64 358.76 436.77 357.62 459.69 343.14C487.46 325.56 502.43 293.23 500.87 254.26V254.26Z" fill="current"/>
</g>
<defs>
<clipPath id="clip0_2998_15290">
<rect width="500.98" height="508.49" fill="white"/>
</clipPath>
</defs>
</svg>
