<svg width="17" height="17" viewBox="0 0 17 17" fill="none" xmlns="http://www.w3.org/2000/svg">
<path fill-rule="evenodd" clip-rule="evenodd" d="M3 0C1.34315 0 0 1.34315 0 3V9C0 10.6569 1.34315 12 3 12V10C2.44772 10 2 9.55228 2 9V3C2 2.44772 2.44772 2 3 2H9C9.55229 2 10 2.44772 10 3C10 3.55228 10.4477 4 11 4H7C5.34315 4 4 5.34315 4 7V14C4 15.6569 5.34315 17 7 17H14C15.6569 17 17 15.6569 17 14V7C17 5.34315 15.6569 4 14 4H11C11.5523 4 12 3.55228 12 3C12 1.34315 10.6569 0 9 0H3ZM6 7C6 6.44772 6.44772 6 7 6H14C14.5523 6 15 6.44772 15 7V14C15 14.5523 14.5523 15 14 15H7C6.44772 15 6 14.5523 6 14V7Z" fill="current"/>
</svg>
