<svg width="52" height="42" viewBox="0 0 52 42" fill="none" xmlns="http://www.w3.org/2000/svg">
<path fill-rule="evenodd" clip-rule="evenodd" d="M5.33301 0.333344H7.33301H17.6456C19.2812 0.333344 20.7521 1.32915 21.3595 2.84778L25.2372 12.542C25.5207 13.2507 25.6663 14.007 25.6663 14.7703V16.6667H37.9997V6.66668C37.9997 4.45754 39.7905 2.66668 41.9997 2.66668H44.6663V6.66668H41.9997V16.6667H45.5567C47.6513 16.6667 49.1011 18.7588 48.3657 20.72L46.3228 26.1678C49.4419 27.3169 51.6663 30.3153 51.6663 33.8333C51.6663 38.3437 48.01 42 43.4997 42C39.2707 42 35.7925 38.7856 35.375 34.6667H25.9997H23.9997V32.6667C23.9997 25.2001 17.9195 18.3333 10.833 18.3333H9.33301H7.33301H2.66634V14.3333H5.33301V2.33334V0.333344ZM44.1137 20.6667L42.2001 25.7695C39.3819 26.2201 37.045 28.1126 35.9696 30.6667H27.8849C27.4668 27.012 25.9272 23.4949 23.5999 20.6667H44.1137ZM9.33301 14.3333H10.833C13.821 14.3333 16.602 15.1978 19.0186 16.6667H21.6663V14.7703C21.6663 14.5159 21.6178 14.2638 21.5233 14.0276L17.6456 4.33334H9.33301V14.3333ZM17.333 31.5C17.333 35.0899 14.4229 38 10.833 38C7.24316 38 4.33301 35.0899 4.33301 31.5C4.33301 27.9102 7.24316 25 10.833 25C14.4229 25 17.333 27.9102 17.333 31.5ZM21.333 31.5C21.333 37.299 16.632 42 10.833 42C5.03402 42 0.333008 37.299 0.333008 31.5C0.333008 25.701 5.03402 21 10.833 21C16.632 21 21.333 25.701 21.333 31.5ZM47.6663 33.8333C47.6663 36.1345 45.8009 38 43.4997 38C41.1985 38 39.333 36.1345 39.333 33.8333C39.333 31.5322 41.1985 29.6667 43.4997 29.6667C45.8009 29.6667 47.6663 31.5322 47.6663 33.8333Z" fill="current"/>
</svg>
