<svg width="32" height="32" viewBox="0 0 32 32" fill="none" xmlns="http://www.w3.org/2000/svg">
<mask id="path-1-inside-1_4439_29262" fill="white">
<path d="M0 4C0 1.79086 1.79086 0 4 0H28C30.2091 0 32 1.79086 32 4V28C32 30.2091 30.2091 32 28 32H4C1.79086 32 0 30.2091 0 28V4Z"/>
</mask>
<path d="M0 4C0 1.79086 1.79086 0 4 0H28C30.2091 0 32 1.79086 32 4V28C32 30.2091 30.2091 32 28 32H4C1.79086 32 0 30.2091 0 28V4Z" fill="#ECECFE"/>
<path d="M15.56 20.096C16.64 20.096 17.528 19.544 17.804 18.716V20H19.4V16.76C19.4 16.028 18.824 15.404 18.044 15.404H15.764V16.76H17.384C17.588 16.76 17.72 16.892 17.72 17.096C17.72 17.876 16.688 18.632 15.644 18.632C14.252 18.632 13.148 17.54 13.148 15.8C13.148 14.06 14.252 13.052 15.68 13.052C16.76 13.052 17.504 13.64 17.636 14.54H19.424C19.316 12.74 17.804 11.504 15.692 11.504C13.472 11.504 11.432 12.932 11.432 15.8C11.432 18.668 13.412 20.096 15.56 20.096Z" fill="#8473FF"/>
<path d="M-1 4C-1 1.23858 1.23858 -1 4 -1H28C30.7614 -1 33 1.23858 33 4H31C31 2.34315 29.6569 1 28 1H4C2.34315 1 1 2.34315 1 4H-1ZM33 31C33 33.7614 30.7614 36 28 36H4C1.23858 36 -1 33.7614 -1 31L1 28C1 28 2.34315 28 4 28H28C29.6569 28 31 28 31 28L33 31ZM4 36C1.23858 36 -1 33.7614 -1 31V4C-1 1.23858 1.23858 -1 4 -1V1C2.34315 1 1 2.34315 1 4V28C1 28 2.34315 28 4 28V36ZM28 -1C30.7614 -1 33 1.23858 33 4V31C33 33.7614 30.7614 36 28 36V28C29.6569 28 31 28 31 28V4C31 2.34315 29.6569 1 28 1V-1Z" fill="#D5D5FB" mask="url(#path-1-inside-1_4439_29262)"/>
</svg>
