<svg width="22" height="14" viewBox="0 0 22 14" fill="none" xmlns="http://www.w3.org/2000/svg">
<path d="M4 3C3.44772 3 3 3.44772 3 4C3 4.55228 3.44772 5 4 5H5C5.55228 5 6 4.55228 6 4C6 3.44772 5.55228 3 5 3H4Z" fill="current"/>
<path d="M3 10C3 9.44771 3.44772 9 4 9H5C5.55228 9 6 9.44771 6 10C6 10.5523 5.55228 11 5 11H4C3.44772 11 3 10.5523 3 10Z" fill="current"/>
<path d="M7 10C7 9.44771 7.44772 9 8 9H14C14.5523 9 15 9.44771 15 10C15 10.5523 14.5523 11 14 11H8C7.44772 11 7 10.5523 7 10Z" fill="current"/>
<path d="M3 7C3 6.44772 3.44772 6 4 6H6C6.55228 6 7 6.44772 7 7C7 7.55228 6.55228 8 6 8H4C3.44772 8 3 7.55228 3 7Z" fill="current"/>
<path d="M19 4C19 3.44772 18.5523 3 18 3H17C16.4477 3 16 3.44772 16 4C16 4.55228 16.4477 5 17 5V7C17 7.55228 17.4477 8 18 8C18.5523 8 19 7.55228 19 7V4Z" fill="current"/>
<path d="M16 10C16 9.44771 16.4477 9 17 9H18C18.5523 9 19 9.44771 19 10C19 10.5523 18.5523 11 18 11H17C16.4477 11 16 10.5523 16 10Z" fill="current"/>
<path d="M10 7C10 7.55228 9.55229 8 9 8C8.44771 8 8 7.55228 8 7C8 6.44772 8.44771 6 9 6C9.55229 6 10 6.44772 10 7Z" fill="current"/>
<path d="M8 5C8.55229 5 9 4.55228 9 4C9 3.44772 8.55229 3 8 3C7.44772 3 7 3.44772 7 4C7 4.55228 7.44772 5 8 5Z" fill="current"/>
<path d="M13 7C13 7.55228 12.5523 8 12 8C11.4477 8 11 7.55228 11 7C11 6.44772 11.4477 6 12 6C12.5523 6 13 6.44772 13 7Z" fill="current"/>
<path d="M11 5C11.5523 5 12 4.55228 12 4C12 3.44772 11.5523 3 11 3C10.4477 3 10 3.44772 10 4C10 4.55228 10.4477 5 11 5Z" fill="current"/>
<path d="M16 7C16 7.55228 15.5523 8 15 8C14.4477 8 14 7.55228 14 7C14 6.44772 14.4477 6 15 6C15.5523 6 16 6.44772 16 7Z" fill="current"/>
<path d="M14 5C14.5523 5 15 4.55228 15 4C15 3.44772 14.5523 3 14 3C13.4477 3 13 3.44772 13 4C13 4.55228 13.4477 5 14 5Z" fill="current"/>
<path fill-rule="evenodd" clip-rule="evenodd" d="M3 0C1.34315 0 0 1.34315 0 3V11C0 12.6569 1.34315 14 3 14H19C20.6569 14 22 12.6569 22 11V3C22 1.34315 20.6569 0 19 0H3ZM2 3C2 2.44772 2.44772 2 3 2H19C19.5523 2 20 2.44772 20 3V11C20 11.5523 19.5523 12 19 12H3C2.44772 12 2 11.5523 2 11V3Z" fill="current"/>
</svg>
