<svg width="20" height="20" viewBox="0 0 20 20" fill="none" xmlns="http://www.w3.org/2000/svg">
<path fill-rule="evenodd" clip-rule="evenodd" d="M9.29342 10.7059L8.58899 10.0014C7.80794 9.22039 7.80794 7.95406 8.58899 7.17302L12.1245 3.63748C13.2961 2.46591 15.1956 2.46591 16.3672 3.63748C17.5387 4.80905 17.5387 6.70855 16.3672 7.88012L15.6601 8.58723C15.2695 8.97775 15.2695 9.61092 15.6601 10.0014C16.0506 10.392 16.6837 10.392 17.0743 10.0014L17.7814 9.29434C19.734 7.34171 19.734 4.17589 17.7814 2.22327C15.8288 0.270648 12.6629 0.270648 10.7103 2.22327L7.17477 5.7588C5.61268 7.3209 5.61268 9.85356 7.17477 11.4157L7.8792 12.1201C8.26973 12.5106 8.90289 12.5106 9.29342 12.1201C9.68394 11.7296 9.68394 11.0964 9.29342 10.7059ZM12.1218 7.87744C11.7313 7.48692 11.0982 7.48692 10.7076 7.87744C10.3171 8.26797 10.3171 8.90113 10.7076 9.29165L11.4147 9.99876C12.1958 10.7798 12.1958 12.0461 11.4147 12.8272L7.87921 16.3627C6.70763 17.5343 4.80814 17.5343 3.63657 16.3627C2.46499 15.1911 2.46499 13.2917 3.63657 12.1201L4.34367 11.413C4.7342 11.0225 4.7342 10.3893 4.34367 9.99876C3.95315 9.60824 3.31999 9.60824 2.92946 9.99876L2.22235 10.7059C0.269732 12.6585 0.269732 15.8243 2.22235 17.7769C4.17498 19.7296 7.3408 19.7296 9.29342 17.7769L12.829 14.2414C14.3911 12.6793 14.3911 10.1466 12.829 8.58455L12.1218 7.87744Z" fill="current"/>
</svg>
