<svg width="17" height="16" viewBox="0 0 17 16" fill="none" xmlns="http://www.w3.org/2000/svg">
<path fill-rule="evenodd" clip-rule="evenodd" d="M8.446 2.05875C9.67193 1.87845 10.923 2.11555 12.0122 2.73825C13.1021 3.36134 13.9741 4.33898 14.4899 5.52987C15.0058 6.72118 15.1351 8.05654 14.8563 9.33289C14.5775 10.609 13.9075 11.7504 12.9545 12.5882C12.0021 13.4254 10.8182 13.9149 9.58238 13.9899C8.34667 14.0648 7.11769 13.7218 6.08004 13.0071C5.33685 12.4952 4.71968 11.8117 4.27474 11.0122C4.00617 10.5296 3.39723 10.3561 2.91465 10.6247C2.43207 10.8933 2.25858 11.5022 2.52715 11.9848C3.11848 13.0473 3.94322 13.9638 4.94555 14.6542C6.34648 15.6192 8.01654 16.0885 9.70347 15.9862C11.3903 15.8839 12.9943 15.2161 14.275 14.0903C15.555 12.9651 16.4422 11.4441 16.8102 9.75973C17.1781 8.07561 17.0085 6.31277 16.3251 4.735C15.6416 3.15682 14.4787 1.84455 13.0049 1.00196C11.5303 0.15898 9.8277 -0.165967 8.155 0.0800295C6.48772 0.325229 4.948 1.12318 3.7641 2.34657L2 4.06897V3.00001C2 2.44772 1.55228 2.00001 1 2.00001C0.447716 2.00001 -1.47689e-08 2.44772 -1.47689e-08 3.00001V7.00001C-1.47689e-08 7.55229 0.447716 8.00001 1 8.00001H5C5.55229 8.00001 6 7.55229 6 7.00001C6 6.44772 5.55229 6.00001 5 6.00001H2.88509L5.1718 3.76734C5.17904 3.76027 5.18617 3.7531 5.19319 3.74581C6.07736 2.8285 7.21978 2.23908 8.446 2.05875ZM8 4C8 3.44772 8.44772 3 9 3C9.55228 3 10 3.44772 10 4V7.46482L12.5547 9.16795C13.0142 9.4743 13.1384 10.0952 12.8321 10.5547C12.5257 11.0142 11.9048 11.1384 11.4453 10.8321L8.4453 8.83205C8.1671 8.64658 8 8.33435 8 8V4Z" fill="current"/>
</svg>
