<svg width="19" height="22" viewBox="0 0 19 22" fill="none" xmlns="http://www.w3.org/2000/svg">
<path fill-rule="evenodd" clip-rule="evenodd" d="M7 0C5.34315 0 4 1.34315 4 3H3C1.34315 3 0 4.34315 0 6V19C0 20.6569 1.34315 22 3 22H12C13.6569 22 15 20.6569 15 19V18H16C17.6569 18 19 16.6569 19 15V3C19 1.34315 17.6569 0 16 0H7ZM15 16H16C16.5523 16 17 15.5523 17 15V3C17 2.44772 16.5523 2 16 2H7C6.44772 2 6 2.44772 6 3H12C13.6569 3 15 4.34315 15 6V16ZM2 6C2 5.44772 2.44772 5 3 5H12C12.5523 5 13 5.44772 13 6V19C13 19.5523 12.5523 20 12 20H3C2.44772 20 2 19.5523 2 19V6ZM4 18V16H11V18H4ZM6 9.16065L7.5 8.3035L9 9.16064V10.8394L7.5 11.6965L6 10.8394V9.16065ZM7.5 6L11 8V12L7.5 14L4 12V8L7.5 6Z" fill="current"/>
</svg>
