<svg width="16" height="19" viewBox="0 0 16 19" fill="none" xmlns="http://www.w3.org/2000/svg">
<path fill-rule="evenodd" clip-rule="evenodd" d="M3 2.5C3 1.11929 4.11929 0 5.5 0C6.88071 0 8 1.11929 8 2.5V3C8 3.55228 7.55228 4 7 4C6.44772 4 6 3.55228 6 3V2.5C6 2.22386 5.77614 2 5.5 2C5.22386 2 5 2.22386 5 2.5V5H10V2.5C10 1.11929 11.1193 0 12.5 0C13.8807 0 15 1.11929 15 2.5V3C15 3.55228 14.5523 4 14 4C13.4477 4 13 3.55228 13 3V2.5C13 2.22386 12.7761 2 12.5 2C12.2239 2 12 2.22386 12 2.5L12 6V10L12 13C12 13.5523 11.5523 14 11 14C10.4477 14 10 13.5523 10 13V11H5V13C5 13.5523 4.55228 14 4 14C3.44772 14 3 13.5523 3 13V10V6V2.5ZM10 7V9H5V7H10ZM15.8321 16.5547C16.1384 16.0952 16.0142 15.4743 15.5547 15.1679C15.0952 14.8616 14.4743 14.9858 14.1679 15.4453L13.5951 16.3045C13.2812 16.7755 12.5959 16.7945 12.2563 16.3417C11.1281 14.8375 8.87186 14.8375 7.74372 16.3417L7.7 16.4C7.35 16.8667 6.65 16.8667 6.3 16.4L6.19121 16.2549C5.09181 14.7891 2.94899 14.6368 1.65334 15.9325L0.792893 16.7929C0.402369 17.1834 0.402369 17.8166 0.792893 18.2071C1.18342 18.5976 1.81658 18.5976 2.20711 18.2071L3.06755 17.3467C3.50259 16.9116 4.22207 16.9628 4.59121 17.4549L4.7 17.6C5.85 19.1333 8.15 19.1333 9.3 17.6L9.34372 17.5417C9.67186 17.1042 10.3281 17.1042 10.6563 17.5417C11.8238 19.0984 14.1798 19.033 15.2592 17.4139L15.8321 16.5547Z" fill="current"/>
</svg>
