<svg width="20" height="20" viewBox="0 0 20 20" fill="none" xmlns="http://www.w3.org/2000/svg">
<path fill-rule="evenodd" clip-rule="evenodd" d="M9.37494 0C8.26413 0 7.36364 0.900489 7.36364 2.0113V2.01141C7.36364 2.012 7.36364 2.01259 7.36293 2.01458C7.36199 2.01724 7.35908 2.02404 7.35155 2.03378C7.33522 2.05492 7.30411 2.08051 7.26009 2.09577C6.94726 2.20419 6.64292 2.33063 6.34831 2.4738C6.30653 2.49411 6.26656 2.49801 6.24011 2.49462C6.22793 2.49306 6.22107 2.49031 6.2185 2.48909C6.21654 2.48816 6.21611 2.48773 6.21565 2.48727L6.21558 2.4872C5.42998 1.70159 4.15626 1.70159 3.37066 2.4872L2.4872 3.37065C1.70159 4.15626 1.70159 5.42997 2.4872 6.21558L2.48727 6.21565C2.48773 6.21611 2.48816 6.21654 2.48909 6.21849C2.49032 6.22106 2.49306 6.22793 2.49462 6.24011C2.49801 6.26655 2.49411 6.30652 2.47381 6.34831C2.33063 6.64292 2.20419 6.94726 2.09577 7.26009C2.08051 7.30411 2.05493 7.33522 2.03378 7.35155C2.02404 7.35907 2.01724 7.36199 2.01458 7.36293C2.01259 7.36364 2.012 7.36364 2.01141 7.36364H2.0113C0.90049 7.36364 0 8.26413 0 9.37494V10.6251C0 11.7359 0.900489 12.6364 2.0113 12.6364C2.01194 12.6364 2.01246 12.6363 2.01458 12.6371C2.01724 12.638 2.02404 12.6409 2.03378 12.6484C2.05492 12.6648 2.08051 12.6959 2.09577 12.7399C2.2042 13.0528 2.33064 13.3571 2.47383 13.6517C2.49413 13.6935 2.49803 13.7335 2.49464 13.7599C2.49308 13.7721 2.49034 13.779 2.48912 13.7815C2.48872 13.7824 2.48842 13.7829 2.48816 13.7833C2.48795 13.7836 2.48778 13.7839 2.48761 13.784L2.48723 13.7844C1.70163 14.57 1.70163 15.8437 2.48723 16.6293L3.37071 17.5128C4.15631 18.2984 5.43002 18.2984 6.21562 17.5128L6.21617 17.5123C6.21658 17.512 6.2172 17.5115 6.21853 17.5109C6.2211 17.5097 6.22796 17.507 6.24014 17.5054C6.26658 17.502 6.30655 17.5059 6.34833 17.5262C6.64293 17.6694 6.94727 17.7958 7.26009 17.9042C7.30411 17.9195 7.33522 17.9451 7.35155 17.9662C7.35908 17.976 7.36199 17.9828 7.36293 17.9854C7.36364 17.9874 7.36364 17.988 7.36364 17.9886V17.9887C7.36364 19.0995 8.26413 20 9.37494 20H10.6251C11.7359 20 12.6364 19.0995 12.6364 17.9887C12.6364 17.9881 12.6363 17.9875 12.6371 17.9854C12.638 17.9828 12.6409 17.976 12.6484 17.9662C12.6648 17.9451 12.6959 17.9195 12.7399 17.9042C13.0527 17.7958 13.3571 17.6694 13.6517 17.5262C13.6935 17.5059 13.7334 17.502 13.7599 17.5054C13.7721 17.5069 13.7789 17.5097 13.7815 17.5109C13.7835 17.5118 13.7839 17.5123 13.7844 17.5127L13.7844 17.5128C14.57 18.2984 15.8437 18.2984 16.6293 17.5128L17.5128 16.6293C18.2984 15.8437 18.2984 14.57 17.5128 13.7844L17.5127 13.7843C17.5123 13.7839 17.5118 13.7835 17.5109 13.7815C17.5097 13.7789 17.5069 13.7721 17.5054 13.7599C17.502 13.7334 17.5059 13.6935 17.5262 13.6517C17.6694 13.3571 17.7958 13.0527 17.9042 12.7399C17.9195 12.6959 17.9451 12.6648 17.9662 12.6484C17.976 12.6409 17.9828 12.638 17.9854 12.6371C17.9874 12.6364 17.988 12.6364 17.9886 12.6364H17.9887C19.0995 12.6364 20 11.7359 20 10.6251V9.37494C20 8.26413 19.0995 7.36364 17.9887 7.36364H17.9886C17.988 7.36364 17.9874 7.36364 17.9854 7.36293C17.9828 7.36199 17.976 7.35908 17.9662 7.35155C17.9451 7.33522 17.9195 7.30411 17.9042 7.26009C17.7958 6.94728 17.6694 6.64295 17.5262 6.34835C17.5059 6.30657 17.502 6.26659 17.5054 6.24015C17.507 6.22796 17.5097 6.22109 17.5109 6.21852C17.5119 6.21647 17.5123 6.21609 17.5128 6.2156C18.2984 5.42999 18.2984 4.15626 17.5128 3.37065L16.6294 2.48721C15.8438 1.7016 14.5701 1.70161 13.7845 2.48721L13.7844 2.48728C13.7839 2.48774 13.7835 2.48818 13.7815 2.48911C13.779 2.49033 13.7721 2.49307 13.7599 2.49464C13.7335 2.49803 13.6935 2.49412 13.6517 2.47382C13.3571 2.33064 13.0527 2.2042 12.7399 2.09577C12.6959 2.08051 12.6648 2.05492 12.6484 2.03378C12.6409 2.02404 12.638 2.01724 12.6371 2.01458C12.6364 2.01259 12.6364 2.012 12.6364 2.01141V2.0113C12.6364 0.900489 11.7359 0 10.6251 0H9.37494ZM9.36364 2.0113C9.36364 2.00921 9.36383 2.0082 9.36388 2.00796L9.36411 2.00721C9.36438 2.00658 9.3652 2.00506 9.36695 2.00331C9.3687 2.00156 9.37022 2.00074 9.37084 2.00048L9.3716 2.00024C9.37184 2.0002 9.37284 2 9.37494 2H10.6251C10.6272 2 10.6282 2.0002 10.6284 2.00024L10.6292 2.00048C10.6298 2.00074 10.6313 2.00156 10.6331 2.00331C10.6348 2.00506 10.6356 2.00658 10.6359 2.00721L10.6361 2.00796C10.6362 2.0082 10.6364 2.00921 10.6364 2.0113C10.6364 2.97191 11.2983 3.71282 12.0849 3.98548C12.3224 4.0678 12.5536 4.16383 12.7775 4.27264C13.527 4.63689 14.5193 4.58076 15.1987 3.90142C15.2002 3.89993 15.201 3.89934 15.2013 3.89919L15.202 3.89879C15.2027 3.89851 15.2044 3.89801 15.2069 3.89801C15.2094 3.89801 15.2111 3.89851 15.2118 3.89879L15.2126 3.89919C15.2127 3.89927 15.213 3.89947 15.2135 3.89985C15.2139 3.9002 15.2145 3.90071 15.2152 3.90142L16.0986 4.78487C16.1001 4.78637 16.1007 4.78723 16.1008 4.78746L16.1013 4.78822C16.1014 4.78857 16.1016 4.78919 16.1018 4.79004C16.1019 4.79086 16.102 4.7919 16.102 4.79313C16.102 4.79565 16.1015 4.79735 16.1013 4.79803L16.1008 4.7988C16.1007 4.79902 16.1001 4.79989 16.0986 4.80139C15.4193 5.48072 15.3631 6.47304 15.7274 7.22255C15.8362 7.44643 15.9322 7.67758 16.0145 7.91506C16.2872 8.70174 17.0281 9.36364 17.9887 9.36364C17.9908 9.36364 17.9918 9.36383 17.992 9.36388L17.9928 9.36411C17.9934 9.36438 17.9949 9.3652 17.9967 9.36695C17.9984 9.3687 17.9993 9.37022 17.9995 9.37084L17.9998 9.3716L17.9999 9.37245L18 9.37494V10.6251C18 10.6272 17.9998 10.6282 17.9998 10.6284L17.9995 10.6292C17.9993 10.6298 17.9984 10.6313 17.9967 10.6331C17.9949 10.6348 17.9934 10.6356 17.9928 10.6359L17.992 10.6361C17.9918 10.6362 17.9908 10.6364 17.9887 10.6364C17.0281 10.6364 16.2872 11.2983 16.0145 12.0849C15.9322 12.3224 15.8362 12.5536 15.7274 12.7775C15.3631 13.527 15.4193 14.5193 16.0986 15.1986C16.1001 15.2001 16.1007 15.201 16.1008 15.2012L16.1012 15.202C16.1015 15.2027 16.102 15.2044 16.102 15.2069C16.102 15.2082 16.1019 15.2092 16.1017 15.2101C16.1015 15.2109 16.1014 15.2114 16.1012 15.2118L16.1008 15.2125L16.1004 15.2131L16.0986 15.2151L15.2151 16.0986C15.2136 16.1001 15.2127 16.1007 15.2125 16.1008L15.2118 16.1012C15.2111 16.1015 15.2094 16.102 15.2069 16.102C15.2044 16.102 15.2027 16.1015 15.202 16.1012L15.2012 16.1008L15.2008 16.1005L15.1986 16.0986C14.5193 15.4193 13.527 15.3631 12.7775 15.7274C12.5536 15.8362 12.3224 15.9322 12.0849 16.0145C11.2983 16.2872 10.6364 17.0281 10.6364 17.9887C10.6364 17.9908 10.6362 17.9918 10.6361 17.992L10.6359 17.9928L10.6352 17.994C10.6348 17.9947 10.6341 17.9957 10.6331 17.9967C10.6313 17.9984 10.6298 17.9993 10.6292 17.9995L10.6284 17.9998L10.6276 17.9999L10.6251 18H9.37494C9.37284 18 9.37184 17.9998 9.3716 17.9998L9.37084 17.9995C9.37022 17.9993 9.3687 17.9984 9.36695 17.9967C9.36586 17.9956 9.36514 17.9946 9.36468 17.9939C9.3644 17.9934 9.36422 17.993 9.36411 17.9928L9.36388 17.992L9.36377 17.9913L9.36364 17.9887C9.36364 17.0281 8.70174 16.2872 7.91506 16.0145C7.67757 15.9322 7.44642 15.8362 7.22253 15.7274C6.47303 15.3631 5.48073 15.4193 4.8014 16.0986C4.79991 16.1001 4.79904 16.1007 4.79882 16.1008L4.79806 16.1012C4.79738 16.1015 4.79568 16.102 4.79317 16.102C4.79065 16.102 4.78895 16.1015 4.78827 16.1012L4.78751 16.1008C4.78729 16.1007 4.78642 16.1001 4.78493 16.0986L3.90144 15.2151C3.89994 15.2136 3.89936 15.2127 3.89921 15.2125L3.89881 15.2118C3.89854 15.2111 3.89803 15.2094 3.89803 15.2069C3.89803 15.2044 3.89854 15.2027 3.89881 15.202L3.89921 15.2012L3.89964 15.2006L3.90144 15.1987C4.58077 14.5193 4.6369 13.527 4.27264 12.7775C4.16383 12.5536 4.0678 12.3225 3.98548 12.0849C3.71282 11.2983 2.97191 10.6364 2.0113 10.6364C2.00921 10.6364 2.0082 10.6362 2.00796 10.6361L2.00721 10.6359C2.00658 10.6356 2.00506 10.6348 2.00331 10.6331C2.00156 10.6313 2.00074 10.6298 2.00048 10.6292L2.00024 10.6284C2.0002 10.6282 2 10.6272 2 10.6251V9.37494C2 9.37284 2.0002 9.37184 2.00024 9.3716L2.00048 9.37084C2.00074 9.37022 2.00156 9.36869 2.00331 9.36695C2.00506 9.3652 2.00658 9.36438 2.00721 9.36411L2.00796 9.36388C2.0082 9.36383 2.00921 9.36364 2.0113 9.36364C2.97191 9.36364 3.71282 8.70174 3.98548 7.91506C4.0678 7.67756 4.16382 7.4464 4.27263 7.22252C4.63688 6.47301 4.58075 5.4807 3.90141 4.80136C3.89991 4.79987 3.89933 4.799 3.89918 4.79877L3.89878 4.79801C3.8985 4.79734 3.898 4.79564 3.898 4.79312C3.898 4.7906 3.8985 4.7889 3.89878 4.78822L3.89918 4.78746C3.89927 4.78732 3.89953 4.78694 3.90006 4.78631C3.9004 4.78593 3.90084 4.78544 3.90141 4.78487L4.78487 3.90141C4.78637 3.89991 4.78724 3.89932 4.78746 3.89918L4.78822 3.89877C4.7889 3.8985 4.7906 3.89799 4.79312 3.89799C4.79564 3.89799 4.79734 3.8985 4.79801 3.89877L4.79878 3.89918C4.799 3.89933 4.79987 3.89991 4.80137 3.90141C5.4807 4.58074 6.47301 4.63688 7.22252 4.27263C7.44641 4.16382 7.67756 4.0678 7.91506 3.98548C8.70174 3.71282 9.36364 2.97191 9.36364 2.0113ZM12 10C12 11.1046 11.1046 12 10 12C8.89543 12 8 11.1046 8 10C8 8.89543 8.89543 8 10 8C11.1046 8 12 8.89543 12 10ZM14 10C14 12.2091 12.2091 14 10 14C7.79086 14 6 12.2091 6 10C6 7.79086 7.79086 6 10 6C12.2091 6 14 7.79086 14 10Z" fill="current"/>
</svg>
