<svg width="16" height="16" viewBox="0 0 16 16" fill="none" xmlns="http://www.w3.org/2000/svg">
<path fill-rule="evenodd" clip-rule="evenodd" d="M10 6.00005V2.34319C10.0996 2.3784 10.1983 2.41626 10.2961 2.45677C11.0241 2.7583 11.6855 3.20026 12.2426 3.75741C12.7998 4.31456 13.2418 4.97599 13.5433 5.70395C13.5838 5.80174 13.6217 5.90048 13.6569 6.00005H10ZM8 1.00005C8 0.447763 8.44943 -0.00638977 8.99741 0.0624674C9.70528 0.151417 10.3996 0.334846 11.0615 0.609012C12.0321 1.01105 12.914 1.60033 13.6569 2.34319C14.3997 3.08606 14.989 3.96798 15.391 4.93858C15.6652 5.60047 15.8486 6.29477 15.9376 7.00264C16.0064 7.55062 15.5523 8.00005 15 8.00005L9 8.00005C8.44772 8.00005 8 7.55233 8 7.00005V1.00005ZM11.1574 11.7779C11.3226 11.5306 11.4647 11.2702 11.5826 11H8C6.34315 11 5 9.6569 5 8.00005V4.41747C4.72987 4.53537 4.46947 4.67745 4.22215 4.8427C3.39991 5.39211 2.75904 6.173 2.38061 7.08663C2.00217 8.00026 1.90315 9.00559 2.09608 9.9755C2.289 10.9454 2.76521 11.8363 3.46447 12.5356C4.16373 13.2348 5.05465 13.711 6.02455 13.904C6.99446 14.0969 7.99979 13.9979 8.91342 13.6194C9.82705 13.241 10.6079 12.6001 11.1574 11.7779ZM13 9.00005C13.5523 9.00005 14.0073 9.45002 13.9287 9.99667C13.7804 11.0273 13.4034 12.0163 12.8203 12.889C12.0511 14.0402 10.9579 14.9374 9.67879 15.4672C8.3997 15.997 6.99224 16.1356 5.63437 15.8655C4.2765 15.5954 3.02922 14.9288 2.05026 13.9498C1.07129 12.9708 0.404603 11.7235 0.134506 10.3657C-0.13559 9.00781 0.00303301 7.60035 0.532846 6.32126C1.06266 5.04218 1.95987 3.94893 3.11101 3.17976C3.98375 2.59661 4.97273 2.2196 6.00338 2.07135C6.55004 1.99272 7 2.44776 7 3.00005V8.00005C7 8.55233 7.44772 9.00005 8 9.00005H13Z" fill="current"/>
</svg>
