<svg width="18" height="18" viewBox="0 0 18 18" fill="none" xmlns="http://www.w3.org/2000/svg">
<path fill-rule="evenodd" clip-rule="evenodd" d="M7 2H11V3H7V2ZM5 3V2C5 0.89543 5.89543 0 7 0H11C12.1046 0 13 0.895431 13 2V3H16C17.1046 3 18 3.89543 18 5V9C18 9.74708 17.5904 10.3985 16.9835 10.7419C16.9944 10.8264 17 10.9125 17 11V16C17 17.1046 16.1046 18 15 18H3C1.89543 18 1 17.1046 1 16V11C1 10.9125 1.00562 10.8264 1.01651 10.7419C0.409614 10.3985 0 9.74708 0 9V5C0 3.89543 0.895431 3 2 3H5ZM3 11H15V16H3V11ZM16 9H15H3H2L2 5H7H11H16V9ZM8 6C7.44772 6 7 6.44772 7 7C7 7.55228 7.44772 8 8 8H10C10.5523 8 11 7.55228 11 7C11 6.44772 10.5523 6 10 6H8Z" fill="current"/>
</svg>
