<svg width="24" height="24" viewBox="0 0 24 24" fill="none" xmlns="http://www.w3.org/2000/svg">
<path fill-rule="evenodd" clip-rule="evenodd" d="M9.5 2C8.11929 2 7 3.11929 7 4.5V8V12V14.1529C6.5088 14.2844 6.0428 14.543 5.65334 14.9325L4.79289 15.7929C4.40237 16.1834 4.40237 16.8166 4.79289 17.2071C5.18342 17.5976 5.81658 17.5976 6.20711 17.2071L7.06755 16.3467C7.50259 15.9116 8.22207 15.9628 8.59121 16.4549L8.7 16.6C9.85 18.1333 12.15 18.1333 13.3 16.6L13.3437 16.5417C13.6719 16.1042 14.3281 16.1042 14.6563 16.5417C15.8238 18.0984 18.1798 18.033 19.2592 16.4139L19.8321 15.5547C20.1384 15.0952 20.0142 14.4743 19.5547 14.1679C19.0952 13.8616 18.4743 13.9858 18.1679 14.4453L17.5951 15.3045C17.2812 15.7755 16.5959 15.7945 16.2563 15.3417C16.176 15.2346 16.09 15.1352 15.9991 15.0434C15.9997 15.029 16 15.0145 16 15L16 12V8L16 4.5C16 4.22386 16.2239 4 16.5 4C16.7761 4 17 4.22386 17 4.5V5C17 5.55228 17.4477 6 18 6C18.5523 6 19 5.55228 19 5V4.5C19 3.11929 17.8807 2 16.5 2C15.1193 2 14 3.11929 14 4.5V7H9V4.5C9 4.22386 9.22386 4 9.5 4C9.77614 4 10 4.22386 10 4.5V5C10 5.55228 10.4477 6 11 6C11.5523 6 12 5.55228 12 5V4.5C12 3.11929 10.8807 2 9.5 2ZM10.1912 15.2549C9.86822 14.8243 9.45517 14.507 9 14.3065V13H14V14.2136C13.1539 14.2136 12.3078 14.5896 11.7437 15.3417L11.7 15.4C11.35 15.8667 10.65 15.8667 10.3 15.4L10.1912 15.2549ZM14 11V9H9V11H14ZM19.8321 19.5547C20.1384 19.0952 20.0142 18.4743 19.5547 18.1679C19.0952 17.8616 18.4743 17.9858 18.1679 18.4453L17.5951 19.3045C17.2812 19.7755 16.5959 19.7945 16.2563 19.3417C15.1281 17.8375 12.8719 17.8375 11.7437 19.3417L11.7 19.4C11.35 19.8667 10.65 19.8667 10.3 19.4L10.1912 19.2549C9.09181 17.7891 6.94899 17.6368 5.65334 18.9325L4.79289 19.7929C4.40237 20.1834 4.40237 20.8166 4.79289 21.2071C5.18342 21.5976 5.81658 21.5976 6.20711 21.2071L7.06755 20.3467C7.50259 19.9116 8.22207 19.9628 8.59121 20.4549L8.7 20.6C9.85 22.1333 12.15 22.1333 13.3 20.6L13.3437 20.5417C13.6719 20.1042 14.3281 20.1042 14.6563 20.5417C15.8238 22.0984 18.1798 22.033 19.2592 20.4139L19.8321 19.5547Z" fill="current"/>
</svg>
