<svg width="16" height="15" viewBox="0 0 16 15" fill="none" xmlns="http://www.w3.org/2000/svg">
<path fill-rule="evenodd" clip-rule="evenodd" d="M4.58818 2.62272C5.53752 2.09927 6.63128 1.89854 7.70463 2.05078C8.77798 2.20303 9.77277 2.7 10.5391 3.46681C10.5462 3.47397 10.5535 3.48101 10.5609 3.48794L11.8125 4.66663H10.3331C9.78085 4.66663 9.33313 5.11434 9.33313 5.66663C9.33313 6.21891 9.78085 6.66663 10.3331 6.66663H14.3331C14.4902 6.66663 14.6389 6.63039 14.7712 6.56583C14.8523 6.52634 14.929 6.4753 14.9989 6.41278C15.0585 6.35961 15.1116 6.29943 15.157 6.23352C15.2681 6.07241 15.3331 5.87711 15.3331 5.66663V1.66663C15.3331 1.11434 14.8854 0.666627 14.3331 0.666627C13.7808 0.666627 13.3331 1.11434 13.3331 1.66663V3.35135L11.9426 2.04191C10.8713 0.974696 9.48299 0.283008 7.9855 0.0706017C6.48281 -0.142543 4.95155 0.138479 3.62247 0.871321C2.29339 1.60416 1.2385 2.74912 0.616758 4.13365C-0.00498575 5.51819 -0.159896 7.0673 0.175372 8.54753C0.510639 10.0278 1.31792 11.3589 2.47556 12.3405C3.63321 13.322 5.0785 13.9006 6.59364 13.9893C8.10878 14.0779 9.61168 13.6717 10.8759 12.8319C11.7808 12.2307 12.5283 11.4307 13.0655 10.4997C13.3415 10.0214 13.1775 9.40982 12.6991 9.13379C12.2208 8.85777 11.6092 9.02179 11.3332 9.50015C10.9495 10.1652 10.4155 10.7366 9.76918 11.166C8.86619 11.7659 7.79268 12.056 6.71044 11.9927C5.6282 11.9294 4.59585 11.516 3.76896 10.815C2.94207 10.1139 2.36544 9.16305 2.12596 8.10573C1.88649 7.04842 1.99714 5.94192 2.44124 4.95296C2.88534 3.96401 3.63884 3.14618 4.58818 2.62272Z" fill="current"/>
</svg>
