<svg width="16" height="22" viewBox="0 0 16 22" fill="none" xmlns="http://www.w3.org/2000/svg">
<path fill-rule="evenodd" clip-rule="evenodd" d="M7.00335 2.0824C7.00113 2.05523 7 2.02774 7 2V1C7 0.447715 7.44771 0 8 0C8.55228 0 9 0.447715 9 1V2C9 2.02774 8.99887 2.05523 8.99665 2.0824C11.836 2.5571 14 5.02584 14 8V8.53513C15.1956 9.22675 16 10.5194 16 12C16 13.0144 15.6224 13.9407 15 14.6458V19C15 20.6569 13.6569 22 12 22H4C2.34315 22 1 20.6569 1 19V14.6458C0.377636 13.9407 0 13.0144 0 12C0 10.5194 0.804397 9.22675 2 8.53513V8C2 5.02583 4.16398 2.5571 7.00335 2.0824ZM4 8C6.20914 8 8 9.79086 8 12C8 14.2091 6.20914 16 4 16C3.6547 16 3.31962 15.9562 3 15.874V19C3 19.5523 3.44771 20 4 20H12C12.5523 20 13 19.5523 13 19V15.874C12.6804 15.9562 12.3453 16 12 16C9.79086 16 8 14.2091 8 12C8 9.79086 9.79086 8 12 8C12 5.79086 10.2091 4 8 4C5.79086 4 4 5.79086 4 8ZM11 18C11 18.5523 10.5523 19 10 19H6C5.44772 19 5 18.5523 5 18C5 17.4477 5.44772 17 6 17H10C10.5523 17 11 17.4477 11 18ZM4 14C2.89543 14 2 13.1046 2 12C2 10.8954 2.89543 10 4 10C5.10457 10 6 10.8954 6 12C6 13.1046 5.10457 14 4 14ZM10 12C10 13.1046 10.8954 14 12 14C13.1046 14 14 13.1046 14 12C14 10.8954 13.1046 10 12 10C10.8954 10 10 10.8954 10 12ZM5 12C5 12.5523 4.55228 13 4 13C3.44771 13 3 12.5523 3 12C3 11.4477 3.44771 11 4 11C4.55228 11 5 11.4477 5 12ZM12 13C12.5523 13 13 12.5523 13 12C13 11.4477 12.5523 11 12 11C11.4477 11 11 11.4477 11 12C11 12.5523 11.4477 13 12 13Z" fill="current"/>
</svg>
