<svg width="32" height="32" viewBox="0 0 32 32" fill="none" xmlns="http://www.w3.org/2000/svg">
<mask id="path-1-inside-1_4439_29257" fill="white">
<path d="M0 4C0 1.79086 1.79086 0 4 0H28C30.2091 0 32 1.79086 32 4V28C32 30.2091 30.2091 32 28 32H4C1.79086 32 0 30.2091 0 28V4Z"/>
</mask>
<path d="M0 4C0 1.79086 1.79086 0 4 0H28C30.2091 0 32 1.79086 32 4V28C32 30.2091 30.2091 32 28 32H4C1.79086 32 0 30.2091 0 28V4Z" fill="#ECECFE"/>
<path d="M15.092 20H16.904V13.148H19.388V11.6H12.608V13.148H15.092V20Z" fill="#8473FF"/>
<path d="M-1 4C-1 1.23858 1.23858 -1 4 -1H28C30.7614 -1 33 1.23858 33 4H31C31 2.34315 29.6569 1 28 1H4C2.34315 1 1 2.34315 1 4H-1ZM33 31C33 33.7614 30.7614 36 28 36H4C1.23858 36 -1 33.7614 -1 31L1 28C1 28 2.34315 28 4 28H28C29.6569 28 31 28 31 28L33 31ZM4 36C1.23858 36 -1 33.7614 -1 31V4C-1 1.23858 1.23858 -1 4 -1V1C2.34315 1 1 2.34315 1 4V28C1 28 2.34315 28 4 28V36ZM28 -1C30.7614 -1 33 1.23858 33 4V31C33 33.7614 30.7614 36 28 36V28C29.6569 28 31 28 31 28V4C31 2.34315 29.6569 1 28 1V-1Z" fill="#D5D5FB" mask="url(#path-1-inside-1_4439_29257)"/>
</svg>
