<svg width="24" height="24" viewBox="0 0 24 24" fill="none" xmlns="http://www.w3.org/2000/svg">
<path fill-rule="evenodd" clip-rule="evenodd" d="M8.70711 4.29292L8 3.58582L7.29289 4.29292L4.29289 7.29292C3.90237 7.68345 3.90237 8.31661 4.29289 8.70714C4.68342 9.09766 5.31658 9.09766 5.70711 8.70714L7 7.41424L7 17C7 17.5523 7.44772 18 8 18C8.55229 18 9 17.5523 9 17L9 7.41424L10.2929 8.70714C10.6834 9.09766 11.3166 9.09766 11.7071 8.70713C12.0976 8.31661 12.0976 7.68345 11.7071 7.29292L8.70711 4.29292ZM15.2929 19.7071L16 20.4142L16.7071 19.7071L19.7071 16.7071C20.0976 16.3166 20.0976 15.6834 19.7071 15.2929C19.3166 14.9024 18.6834 14.9024 18.2929 15.2929L17 16.5858L17 7.00003C17 6.44774 16.5523 6.00003 16 6.00003C15.4477 6.00003 15 6.44774 15 7.00003L15 16.5858L13.7071 15.2929C13.3166 14.9024 12.6834 14.9024 12.2929 15.2929C11.9024 15.6834 11.9024 16.3166 12.2929 16.7071L15.2929 19.7071Z" fill="current"/>
</svg>
