<svg width="24" height="24" viewBox="0 0 24 24" fill="none" xmlns="http://www.w3.org/2000/svg">
<path d="M20.0387 6.5425C19.4475 6.805 18.8137 6.98125 18.1475 7.06125C18.8275 6.65375 19.35 6.00875 19.595 5.24125C18.96 5.6175 18.2537 5.89125 17.505 6.03875C16.905 5.39875 16.05 5 15.1037 5C13.2863 5 11.8125 6.4725 11.8125 8.29C11.8125 8.5475 11.8425 8.79875 11.8987 9.04C9.16375 8.9025 6.74 7.5925 5.11625 5.60125C4.8325 6.08875 4.67125 6.65375 4.67125 7.25625C4.67125 8.3975 5.25125 9.405 6.135 9.99625C5.595 9.97875 5.0875 9.83 4.64375 9.58375C4.64375 9.5975 4.64375 9.61125 4.64375 9.625C4.64375 11.22 5.77875 12.5487 7.2825 12.8525C7.0075 12.9275 6.71625 12.9675 6.41625 12.9675C6.20375 12.9675 5.9975 12.9475 5.79625 12.9075C6.21625 14.2137 7.43125 15.1675 8.87 15.1937C7.745 16.0763 6.32625 16.6012 4.78375 16.6012C4.5175 16.6012 4.25625 16.5862 4 16.555C5.455 17.49 7.185 18.0337 9.04375 18.0337C15.0962 18.0337 18.4062 13.02 18.4062 8.6725C18.4062 8.53 18.4025 8.38625 18.3975 8.24625C19.04 7.7825 19.5975 7.2025 20.0387 6.5425Z" fill="current"/>
</svg>
