<svg width="20" height="20" viewBox="0 0 20 20" fill="none" xmlns="http://www.w3.org/2000/svg">
<path fill-rule="evenodd" clip-rule="evenodd" d="M19.5003 13.7215L13.2944 2.47147C11.8444 -0.157156 8.13909 -0.157157 6.68906 2.47147L0.483205 13.7215C-0.866887 16.1689 0.7324 19.5 3.78589 19.5H16.1976C19.2511 19.5 20.8504 16.1689 19.5003 13.7215ZM8.44028 3.4375C9.12982 2.1875 10.8537 2.1875 11.5432 3.4375L17.7491 14.6875C18.4386 15.9375 17.5767 17.5 16.1976 17.5H3.78589C2.40681 17.5 1.54489 15.9375 2.23443 14.6875L8.44028 3.4375ZM10.9918 12C10.9918 12.5523 10.544 13 9.99176 13C9.43948 13 8.99176 12.5523 8.99176 12L8.99176 7C8.99176 6.44771 9.43948 6 9.99176 6C10.544 6 10.9918 6.44772 10.9918 7L10.9918 12ZM10.9905 15C10.9905 15.5523 10.5428 16 9.99054 16C9.43825 16 8.99054 15.5523 8.99054 15C8.99054 14.4477 9.43826 14 9.99054 14C10.5428 14 10.9905 14.4477 10.9905 15Z" fill="current"/>
</svg>
